<?xml version="1.0" encoding="utf-8"?>
<!-- Generator: Adobe Illustrator 25.4.1, SVG Export Plug-In . SVG Version: 6.00 Build 0)  -->
<svg version="1.1" id="Layer_1" xmlns="http://www.w3.org/2000/svg" xmlns:xlink="http://www.w3.org/1999/xlink" x="0px" y="0px"
	 viewBox="0 0 24 24" style="enable-background:new 0 0 24 24;" xml:space="preserve">
<g>
	<polygon points="13,11 13,8 11,8 11,11 8,11 8,13 11,13 11,16 13,16 13,13 16,13 16,11 	"/>
	<path d="M21,4V3h-1V2H4v1H3v1H2v16h1v1h1v1h16v-1h1v-1h1V4H21z M20,18h-1v1h-1v1H6v-1H5v-1H4V6h1V5h1V4h12v1h1v1h1V18z"/>
</g>
</svg>
