<?xml version="1.0" encoding="utf-8"?>
<!-- Generator: Adobe Illustrator 25.4.1, SVG Export Plug-In . SVG Version: 6.00 Build 0)  -->
<svg version="1.1" id="Layer_1" xmlns="http://www.w3.org/2000/svg" xmlns:xlink="http://www.w3.org/1999/xlink" x="0px" y="0px"
	 viewBox="0 0 24 24" style="enable-background:new 0 0 24 24;" xml:space="preserve">
<path d="M21,5V4h-1V3h-1V2H5v1H4v1H3v1H2v14h1v1h1v1h1v1h14v-1h1v-1h1v-1h1V5H21z M20,17h-3v-2h-2v-2h-2v-2h-2V9H9V7H7V4h10v1h1v1h1
	v1h1V17z M6,19v-1H5v-1H4V7h1v2h2v2h2v2h2v2h2v2h2v2h2v1H7v-1H6z"/>
</svg>
