<?xml version="1.0" encoding="utf-8"?>
<!-- Generator: Adobe Illustrator 25.4.1, SVG Export Plug-In . SVG Version: 6.00 Build 0)  -->
<svg version="1.1" id="Layer_1" xmlns="http://www.w3.org/2000/svg" xmlns:xlink="http://www.w3.org/1999/xlink" x="0px" y="0px"
	 viewBox="0 0 24 24" style="enable-background:new 0 0 24 24;" xml:space="preserve">
<path d="M18,7V6h-1V5h-1h-1V4h-1V3h-2V2H9v7H8V7H5v2h1v2h2v2H6v2H5v2h3v-2h1v7h3v-1h2v-1h1v-1h2v-1h1v-1h1v-3h-1v-1h-2v-2h2v-1h1V7
	H18z M15,10h-2v1h-2V5h1v1h1v1h2v1h1v1h-1V10z M16,15v1h-1v1h-2v1h-1v1h-1v-6h2v1h2v1H16z"/>
</svg>
