<?xml version="1.0" encoding="utf-8"?>
<!-- Generator: Adobe Illustrator 25.4.1, SVG Export Plug-In . SVG Version: 6.00 Build 0)  -->
<svg version="1.1" id="Layer_1" xmlns="http://www.w3.org/2000/svg" xmlns:xlink="http://www.w3.org/1999/xlink" x="0px" y="0px"
	 viewBox="0 0 24 24" style="enable-background:new 0 0 24 24;" xml:space="preserve">
<path d="M21,5V4h-1V3h-1V2H5v1H4v1H3v1H2v10h1v1h1v1h1v1h1v4h4v-1h1v-1h1v-1h1v-1h6v-1h1v-1h1v-1h1V5H21z M20,13h-1v1h-1v1h-1v1h-5
	v1h-1v1h-1v1H9v1H8v-4H7v-1H6v-1H5v-1H4V7h1V6h1V5h1V4h10v1h1v1h1v1h1V13z"/>
</svg>
