<?xml version="1.0" encoding="utf-8"?>
<!-- Generator: Adobe Illustrator 25.4.1, SVG Export Plug-In . SVG Version: 6.00 Build 0)  -->
<svg version="1.1" id="Layer_1" xmlns="http://www.w3.org/2000/svg" xmlns:xlink="http://www.w3.org/1999/xlink" x="0px" y="0px"
	 viewBox="0 0 24 24" style="enable-background:new 0 0 24 24;" xml:space="preserve">
<g>
	<rect x="7" y="11" width="2" height="2"/>
	<rect x="11" y="11" width="2" height="2"/>
	<rect x="15" y="11" width="2" height="2"/>
	<rect x="7" y="15" width="2" height="2"/>
	<rect x="11" y="15" width="2" height="2"/>
	<rect x="15" y="15" width="2" height="2"/>
	<path d="M21,5V4h-4V3h-2v1H9V3H7v1H3v1H2v16h1v1h18v-1h1V5H21z M20,19h-1v1H5v-1H4V7h1V6h2v2h2V6h6v2h2V7V6h2v1h1V19z"/>
</g>
</svg>
