<?xml version="1.0" encoding="utf-8"?>
<!-- Generator: Adobe Illustrator 25.4.1, SVG Export Plug-In . SVG Version: 6.00 Build 0)  -->
<svg version="1.1" id="Layer_1_copy" xmlns="http://www.w3.org/2000/svg" xmlns:xlink="http://www.w3.org/1999/xlink" x="0px"
	 y="0px" viewBox="0 0 24 24" style="enable-background:new 0 0 24 24;" xml:space="preserve">
<g>
	<polygon points="21,4 20,4 18,4 17,4 16,4 16,5 16,6 17,6 18,6 20,6 21,6 22,6 22,5 22,4 	"/>
	<path d="M21,14v-1h-6v-1h-1v-1h-1v-1h-1V9h-1V3h-1V2H4v1H3v1H2v7h1v1h1v1h1v1h1v1h1v1h1v1h1v1h1v1h1v1h1v1h1v1h7v-1h1v-1h1v-6H21z
		 M20,18h-1v1h-1v1h-3v-1h-1v-1h-1v-1h-1v-1h-1v-1h-1v-1H9v-1H8v-1H7v-1H6v-1H5V9H4V6h1V5h1V4h2v1h1v2H8v3h1v1h1v1h1v1h1v1h1v1h1v1
		h3v-1h2v1h1V18z"/>
</g>
</svg>
