<?xml version="1.0" encoding="utf-8"?>
<!-- Generator: Adobe Illustrator 25.4.1, SVG Export Plug-In . SVG Version: 6.00 Build 0)  -->
<svg version="1.1" id="Layer_1" xmlns="http://www.w3.org/2000/svg" xmlns:xlink="http://www.w3.org/1999/xlink" x="0px" y="0px"
	 viewBox="0 0 24 24" style="enable-background:new 0 0 24 24;" xml:space="preserve">
<g>
	<polygon points="13,12 13,10 11,10 11,12 9,12 9,14 11,14 11,16 13,16 13,14 15,14 15,12 	"/>
	<path d="M21,6V5H11V4h-1V3H3v1H2v16h1v1h18v-1h1V6H21z M20,18h-1v1H5v-1H4V6h1V5h3v1h1v1h10v1h1V18z"/>
</g>
</svg>
