<?xml version="1.0" encoding="utf-8"?>
<!-- Generator: Adobe Illustrator 25.4.1, SVG Export Plug-In . SVG Version: 6.00 Build 0)  -->
<svg version="1.1" id="Layer_1" xmlns="http://www.w3.org/2000/svg" xmlns:xlink="http://www.w3.org/1999/xlink" x="0px" y="0px"
	 viewBox="0 0 24 24" style="enable-background:new 0 0 24 24;" xml:space="preserve">
<g>
	<path d="M6,12h1v1h6v-1h1v-1h1V5h-1V4h-1V3H7v1H6v1H5v6h1V12z M7,7h1V6h1V5h2v1h1v1h1v2h-1v1h-1v1H9v-1H8V9H7V7z"/>
	<polygon points="17,15 16,15 16,14 4,14 4,15 3,15 3,16 2,16 2,21 4,21 4,18 5,18 5,17 6,17 6,16 14,16 14,17 15,17 15,18 16,18 
		16,21 18,21 18,16 17,16 	"/>
	<rect x="16" y="7" width="6" height="2"/>
</g>
</svg>
