<?xml version="1.0" encoding="utf-8"?>
<!-- Generator: Adobe Illustrator 25.4.1, SVG Export Plug-In . SVG Version: 6.00 Build 0)  -->
<svg version="1.1" id="Layer_1" xmlns="http://www.w3.org/2000/svg" xmlns:xlink="http://www.w3.org/1999/xlink" x="0px" y="0px"
	 viewBox="0 0 24 24" style="enable-background:new 0 0 24 24;" xml:space="preserve">
<polygon points="5,7 6,7 6,8 7,8 7,9 8,9 8,10 9,10 9,11 10,11 10,12 11,12 11,13 12,13 12,14 13,14 13,15 14,15 14,16 15,16 15,17 
	9,17 9,19 19,19 19,9 17,9 17,15 16,15 16,14 15,14 15,13 14,13 14,12 13,12 13,11 12,11 12,10 11,10 11,9 10,9 10,8 9,8 9,7 8,7 
	8,6 7,6 7,5 5,5 "/>
</svg>
