<?xml version="1.0" encoding="utf-8"?>
<!-- Generator: Adobe Illustrator 25.4.1, SVG Export Plug-In . SVG Version: 6.00 Build 0)  -->
<svg version="1.1" id="Layer_1" xmlns="http://www.w3.org/2000/svg" xmlns:xlink="http://www.w3.org/1999/xlink" x="0px" y="0px"
	 viewBox="0 0 24 24" style="enable-background:new 0 0 24 24;" xml:space="preserve">
<g>
	<polygon points="7,12 7,14 9,14 9,16 10,16 10,17 11,17 11,18 13,18 13,17 14,17 14,16 15,16 15,14 17,14 17,12 19,12 19,9 17,9 
		17,10 15,10 15,12 13,12 13,3 11,3 11,12 9,12 9,10 7,10 7,9 5,9 5,12 	"/>
	<polygon points="19,17 19,19 5,19 5,17 3,17 3,21 21,21 21,17 	"/>
</g>
</svg>
