<?xml version="1.0" encoding="utf-8"?>
<!-- Generator: Adobe Illustrator 25.4.1, SVG Export Plug-In . SVG Version: 6.00 Build 0)  -->
<svg version="1.1" id="Layer_1" xmlns="http://www.w3.org/2000/svg" xmlns:xlink="http://www.w3.org/1999/xlink" x="0px" y="0px"
	 viewBox="0 0 24 24" style="enable-background:new 0 0 24 24;" xml:space="preserve">
<path d="M16,9V8h-1V6h-1V4h-1V2h-2v2h-1v2H9v2H8v1H2v2h1v1h1v1h1v1h1v4H5v2H4v2h3v-1h2v-1h1v-1h4v1h1v1h2v1h3v-2h-1v-2h-1v-4h1v-1h1
	v-1h1v-1h1V9H16z M16,12v1h-1v2h1v2h-2v-1h-4v1H8v-2h1v-2H8v-1H7v-1h3v-1h1V8h2v2h1v1h3v1H16z"/>
</svg>
