<?xml version="1.0" encoding="utf-8"?>
<!-- Generator: Adobe Illustrator 25.4.1, SVG Export Plug-In . SVG Version: 6.00 Build 0)  -->
<svg version="1.1" id="Layer_1" xmlns="http://www.w3.org/2000/svg" xmlns:xlink="http://www.w3.org/1999/xlink" x="0px" y="0px"
	 viewBox="0 0 24 24" style="enable-background:new 0 0 24 24;" xml:space="preserve">
<g>
	<path d="M14,7h-4v1H9v4h1v1h4v-1h1V8h-1V7z M13,11h-2V9h2V11z"/>
	<path d="M19,4V3h-1V2H6v1H5v1H4v11h1v1h1v1h1v1h1v1h1v1h1v1h1v1h2v-1h1v-1h1v-1h1v-1h1v-1h1v-1h1v-1h1V4H19z M18,14h-1v1h-1v1h-1v1
		h-1v1h-1v1h-2v-1h-1v-1H9v-1H8v-1H7v-1H6V6h1V5h1V4h8v1h1v1h1V14z"/>
</g>
</svg>
