<?xml version="1.0" encoding="utf-8"?>
<!-- Generator: Adobe Illustrator 25.4.1, SVG Export Plug-In . SVG Version: 6.00 Build 0)  -->
<svg version="1.1" id="Layer_1" xmlns="http://www.w3.org/2000/svg" xmlns:xlink="http://www.w3.org/1999/xlink" x="0px" y="0px"
	 viewBox="0 0 24 24" style="enable-background:new 0 0 24 24;" xml:space="preserve">
<path d="M18,8V6h1V2h-2v2h-1v4h-5V6h1V2h-2v2H9v4H2v2h6v1H7v3H2v2h4v2H5v4h2v-1v-1h1v-4h5v1v1h-1v4h2v-2h1v-4h7v-2h-6v-1h1v-3h5V8
	H18z M15,11h-1v3H9v-1h1v-3h5V11z"/>
</svg>
