<?xml version="1.0" encoding="utf-8"?>
<!-- Generator: Adobe Illustrator 25.4.1, SVG Export Plug-In . SVG Version: 6.00 Build 0)  -->
<svg version="1.1" id="Layer_1" xmlns="http://www.w3.org/2000/svg" xmlns:xlink="http://www.w3.org/1999/xlink" x="0px" y="0px"
	 viewBox="0 0 24 24" style="enable-background:new 0 0 24 24;" xml:space="preserve">
<g>
	<path d="M11,6H7v1H6v4h1v1h4v-1h1V7h-1V6z M10,10H8V8h2V10z"/>
	<path d="M21,3V2H3v1H2v18h1v1h18v-1h1V3H21z M20,14h-1v-1h-1v-1h-1v-1h-3v1h-1v1h-1v1h-1v1h-1v1H9v1H8v1H7v1H6v1H5v-1H4V5h1V4h14v1
		h1V14z M20,19h-1v1H9v-1h1v-1h1v-1h1v-1h1v-1h1v-1h1v-1h1v1h1v1h1v1h1v1h1V19z"/>
</g>
</svg>
