<?xml version="1.0" encoding="utf-8"?>
<!-- Generator: Adobe Illustrator 25.4.1, SVG Export Plug-In . SVG Version: 6.00 Build 0)  -->
<svg version="1.1" id="Layer_1" xmlns="http://www.w3.org/2000/svg" xmlns:xlink="http://www.w3.org/1999/xlink" x="0px" y="0px"
	 viewBox="0 0 24 24" style="enable-background:new 0 0 24 24;" xml:space="preserve">
<polygon points="8,3 8,5 12,5 12,8 11,8 11,11 10,11 10,14 9,14 9,17 8,17 8,19 4,19 4,21 15,21 15,20 15,19 11,19 11,16 12,16 
	12,13 13,13 13,10 14,10 14,7 15,7 15,5 19,5 19,3 "/>
</svg>
