<?xml version="1.0" encoding="utf-8"?>
<!-- Generator: Adobe Illustrator 25.4.1, SVG Export Plug-In . SVG Version: 6.00 Build 0)  -->
<svg version="1.1" id="Layer_1" xmlns="http://www.w3.org/2000/svg" xmlns:xlink="http://www.w3.org/1999/xlink" x="0px" y="0px"
	 viewBox="0 0 24 24" style="enable-background:new 0 0 24 24;" xml:space="preserve">
<g>
	<polygon points="13,16 11,16 11,17 10,17 10,19 11,19 11,20 13,20 13,19 14,19 14,17 13,17 	"/>
	<polygon points="13,10 11,10 11,11 10,11 10,13 11,13 11,14 13,14 13,13 14,13 14,11 13,11 	"/>
	<polygon points="13,5 13,4 11,4 11,5 10,5 10,7 11,7 11,8 13,8 13,7 14,7 14,5 	"/>
</g>
</svg>
