<?xml version="1.0" encoding="utf-8"?>
<!-- Generator: Adobe Illustrator 25.4.1, SVG Export Plug-In . SVG Version: 6.00 Build 0)  -->
<svg version="1.1" id="Layer_1" xmlns="http://www.w3.org/2000/svg" xmlns:xlink="http://www.w3.org/1999/xlink" x="0px" y="0px"
	 viewBox="0 0 24 24" style="enable-background:new 0 0 24 24;" xml:space="preserve">
<path d="M21,4V3H3v1H2v16h1v1h18v-1h1V4H21z M20,7h-1v1h-2v1h-2v1h-2v1h-2v-1H9V9H7V8H5V7H4V6h1V5h14v1h1V7z M20,18h-1v1H5v-1H4v-8
	h1v1h2v1h2v1h1v1h4v-1h1v-1h2v-1h2v-1h1V18z"/>
</svg>
