<?xml version="1.0" encoding="utf-8"?>
<!-- Generator: Adobe Illustrator 25.4.1, SVG Export Plug-In . SVG Version: 6.00 Build 0)  -->
<svg version="1.1" id="Layer_1" xmlns="http://www.w3.org/2000/svg" xmlns:xlink="http://www.w3.org/1999/xlink" x="0px" y="0px"
	 viewBox="0 0 24 24" style="enable-background:new 0 0 24 24;" xml:space="preserve">
<g>
	<polygon points="13,4 13,5 14,5 14,9 15,9 15,10 16,10 16,3 15,3 15,2 9,2 9,3 9,4 	"/>
	<polygon points="13,20 13,18 12,18 12,17 8,17 8,16 7,16 7,14 5,14 5,18 6,18 6,19 11,19 11,20 9,20 9,22 15,22 15,20 	"/>
	<polygon points="21,20 21,18 19,18 19,16 17,16 17,14 15,14 15,12 13,12 13,10 11,10 11,8 9,8 9,6 7,6 7,4 5,4 5,2 3,2 3,1 1,1 
		1,4 3,4 3,6 4,6 5,6 5,8 7,8 7,10 9,10 9,12 11,12 11,14 13,14 13,16 15,16 15,18 17,18 17,20 19,20 19,22 21,22 21,23 23,23 
		23,20 	"/>
</g>
</svg>
