<?xml version="1.0" encoding="utf-8"?>
<!-- Generator: Adobe Illustrator 25.4.1, SVG Export Plug-In . SVG Version: 6.00 Build 0)  -->
<svg version="1.1" id="Layer_1" xmlns="http://www.w3.org/2000/svg" xmlns:xlink="http://www.w3.org/1999/xlink" x="0px" y="0px"
	 viewBox="0 0 24 24" style="enable-background:new 0 0 24 24;" xml:space="preserve">
<g>
	<polygon points="17,14 17,16 16,16 16,17 8,17 8,16 7,16 7,15 7,14 5,14 5,18 6,18 6,19 11,19 11,20 9,20 9,22 15,22 15,20 13,20 
		13,19 18,19 18,18 19,18 19,14 	"/>
	<path d="M9,16h6v-1h1V3h-1V2H9v1H8v12h1V16z M10,5h1V4h2v1h1v8h-1v1h-2v-1h-1V5z"/>
</g>
</svg>
