<?xml version="1.0" encoding="utf-8"?>
<!-- Generator: Adobe Illustrator 25.4.1, SVG Export Plug-In . SVG Version: 6.00 Build 0)  -->
<svg version="1.1" id="Layer_1" xmlns="http://www.w3.org/2000/svg" xmlns:xlink="http://www.w3.org/1999/xlink" x="0px" y="0px"
	 viewBox="0 0 24 24" style="enable-background:new 0 0 24 24;" xml:space="preserve">
<g>
	<polygon points="14,6 14,7 15,7 15,8 16,8 16,9 17,9 17,13 18,13 19,13 19,7 18,7 18,6 17,6 17,5 16,5 16,4 13,4 13,2 11,2 11,6 	
		"/>
	<polygon points="13,19 13,17 6,17 6,16 7,16 7,12 5,12 5,15 4,15 4,17 3,17 3,19 	"/>
	<rect x="10" y="20" width="4" height="2"/>
	<polygon points="21,20 21,18 19,18 19,16 17,16 17,14 15,14 15,12 13,12 13,10 11,10 11,8 9,8 9,6 7,6 7,4 5,4 5,2 3,2 3,1 1,1 
		1,4 3,4 3,6 5,6 5,8 7,8 7,10 9,10 9,12 11,12 11,14 13,14 13,16 15,16 15,18 17,18 17,20 19,20 19,22 21,22 21,23 23,23 23,20 	
		"/>
</g>
</svg>
