<?xml version="1.0" encoding="utf-8"?>
<!-- Generator: Adobe Illustrator 25.4.1, SVG Export Plug-In . SVG Version: 6.00 Build 0)  -->
<svg version="1.1" id="Layer_1" xmlns="http://www.w3.org/2000/svg" xmlns:xlink="http://www.w3.org/1999/xlink" x="0px" y="0px"
	 viewBox="0 0 24 24" style="enable-background:new 0 0 24 24;" xml:space="preserve">
<g>
	<polygon points="8,4 8,5 9,5 9,6 16,6 16,7 17,7 17,8 19,8 19,5 18,5 18,4 11,4 11,3 10,3 10,2 3,2 3,3 2,3 2,15 4,15 4,5 5,5 5,4 
			"/>
	<path d="M21,11v-1h-6V9h-1V8H7v1H6v12h1v1h14v-1h1V11H21z M20,19h-1v1H9v-1H8v-8h1v-1h3v1h1v1h6v1h1V19z"/>
</g>
</svg>
