<?xml version="1.0" encoding="utf-8"?>
<!-- Generator: Adobe Illustrator 25.4.1, SVG Export Plug-In . SVG Version: 6.00 Build 0)  -->
<svg version="1.1" id="Layer_1" xmlns="http://www.w3.org/2000/svg" xmlns:xlink="http://www.w3.org/1999/xlink" x="0px" y="0px"
	 viewBox="0 0 24 24" style="enable-background:new 0 0 24 24;" xml:space="preserve">
<g>
	<polygon points="3,2 3,3 2,3 2,19 3,19 3,20 6,20 6,18 5,18 5,17 4,17 4,5 5,5 5,4 7,4 7,2 	"/>
	<path d="M21,9V8h-1V7h-1V6h-1V5h-1V4H9v1H8v16h1v1h12v-1h1V9H21z M20,19h-1v1h-8v-1h-1V7h1V6h3v6h6V19z M18,9v1h-2V8h1v1H18z"/>
</g>
</svg>
