<?xml version="1.0" encoding="utf-8"?>
<!-- Generator: Adobe Illustrator 25.4.1, SVG Export Plug-In . SVG Version: 6.00 Build 0)  -->
<svg version="1.1" id="Layer_1" xmlns="http://www.w3.org/2000/svg" xmlns:xlink="http://www.w3.org/1999/xlink" x="0px" y="0px"
	 viewBox="0 0 24 24" style="enable-background:new 0 0 24 24;" xml:space="preserve">
<g>
	<path d="M8,12h1v1h6v-1h1v-1h1V5h-1V4h-1V3H9v1H8v1H7v6h1V12z M9,7h1V6h1V5h2v1h1v1h1v2h-1v1h-1v1h-2v-1h-1V9H9V7z"/>
	<polygon points="19,16 19,15 18,15 18,14 6,14 6,15 5,15 5,16 4,16 4,21 6,21 6,18 7,18 7,17 8,17 8,16 16,16 16,17 17,17 17,18 
		18,18 18,21 20,21 20,16 	"/>
</g>
</svg>
