<?xml version="1.0" encoding="utf-8"?>
<!-- Generator: Adobe Illustrator 25.4.1, SVG Export Plug-In . SVG Version: 6.00 Build 0)  -->
<svg version="1.1" id="Layer_1" xmlns="http://www.w3.org/2000/svg" xmlns:xlink="http://www.w3.org/1999/xlink" x="0px" y="0px"
	 viewBox="0 0 24 24" style="enable-background:new 0 0 24 24;" xml:space="preserve">
<g>
	<path d="M15,9H9v1H8v6h1v1h6v-1h1v-6h-1V9z M14,14h-1v1h-2v-1h-1v-2h1v-1h2v1h1V14z"/>
	<path d="M21,7V6h-4V4H7v2H3v1H2v13h1v1h18v-1h1V7H21z M20,18h-1v1H5v-1H4V9h1V8h4V7V6h6v1v1h4v1h1V18z"/>
</g>
</svg>
