<?xml version="1.0" encoding="utf-8"?>
<!-- Generator: Adobe Illustrator 25.4.1, SVG Export Plug-In . SVG Version: 6.00 Build 0)  -->
<svg version="1.1" id="Layer_1" xmlns="http://www.w3.org/2000/svg" xmlns:xlink="http://www.w3.org/1999/xlink" x="0px" y="0px"
	 viewBox="0 0 24 24" style="enable-background:new 0 0 24 24;" xml:space="preserve">
<polygon points="19,7 19,9 17,9 17,11 15,11 15,13 13,13 13,15 11,15 11,13 9,13 9,11 7,11 7,9 5,9 5,7 2,7 2,9 3,9 3,11 5,11 5,13 
	7,13 7,15 9,15 9,17 10,17 10,18 11,18 11,19 13,19 13,18 14,18 14,17 15,17 15,15 17,15 17,13 19,13 19,11 21,11 21,9 22,9 22,7 
	"/>
</svg>
