<?xml version="1.0" encoding="utf-8"?>
<!-- Generator: Adobe Illustrator 25.4.1, SVG Export Plug-In . SVG Version: 6.00 Build 0)  -->
<svg version="1.1" id="Layer_1" xmlns="http://www.w3.org/2000/svg" xmlns:xlink="http://www.w3.org/1999/xlink" x="0px" y="0px"
	 viewBox="0 0 24 24" style="enable-background:new 0 0 24 24;" xml:space="preserve">
<polygon points="16,2 16,3 14,3 14,5 12,5 12,7 10,7 10,9 8,9 8,10 7,10 7,11 6,11 6,13 7,13 7,14 8,14 8,15 10,15 10,17 12,17 
	12,19 13,19 14,19 14,20 14,21 16,21 16,22 18,22 18,19 16,19 16,17 14,17 14,15 12,15 12,13 10,13 10,11 12,11 12,9 14,9 14,7 
	16,7 16,5 18,5 18,2 "/>
</svg>
