<?xml version="1.0" encoding="utf-8"?>
<!-- Generator: Adobe Illustrator 25.4.1, SVG Export Plug-In . SVG Version: 6.00 Build 0)  -->
<svg version="1.1" id="Layer_1" xmlns="http://www.w3.org/2000/svg" xmlns:xlink="http://www.w3.org/1999/xlink" x="0px" y="0px"
	 viewBox="0 0 24 24" style="enable-background:new 0 0 24 24;" xml:space="preserve">
<path d="M19,6V5h-2V4h-2V3h-1V2h-4v1H9v1H7v1H5v1H3v9h1v1h1v1h1v1h1v1h1v1h1v1h1v1h4v-1h1v-1h1v-1h1v-1h1v-1h1v-1h1v-1h1V6H19z
	 M19,13h-1v2h-1v1h-1v1h-1v1h-1v1h-4v-1H9v-1H8v-1H7v-1H6v-2H5V8h2V7h2V6h2V5h2v1h2v1h2v1h2V13z"/>
</svg>
