<?xml version="1.0" encoding="utf-8"?>
<!-- Generator: Adobe Illustrator 25.4.1, SVG Export Plug-In . SVG Version: 6.00 Build 0)  -->
<svg version="1.1" id="Layer_1" xmlns="http://www.w3.org/2000/svg" xmlns:xlink="http://www.w3.org/1999/xlink" x="0px" y="0px"
	 viewBox="0 0 24 24" style="enable-background:new 0 0 24 24;" xml:space="preserve">
<polygon points="20,6 20,5 19,5 19,4 18,4 18,3 8,3 8,4 7,4 7,5 6,5 6,6 5,6 5,5 5,4 3,4 3,10 9,10 9,8 7,8 7,7 8,7 8,6 9,6 9,5 
	16,5 16,6 17,6 17,7 18,7 18,8 19,8 19,16 18,16 18,17 17,17 17,18 16,18 16,19 9,19 9,18 8,18 8,17 7,17 7,16 6,16 6,15 4,15 4,18 
	5,18 5,19 6,19 6,20 7,20 7,21 18,21 18,20 19,20 19,19 20,19 20,18 21,18 21,6 "/>
</svg>
