<?xml version="1.0" encoding="utf-8"?>
<!-- Generator: Adobe Illustrator 25.4.1, SVG Export Plug-In . SVG Version: 6.00 Build 0)  -->
<svg version="1.1" id="Layer_1" xmlns="http://www.w3.org/2000/svg" xmlns:xlink="http://www.w3.org/1999/xlink" x="0px" y="0px"
	 viewBox="0 0 24 24" style="enable-background:new 0 0 24 24;" xml:space="preserve">
<polygon points="4,6 4,5 5,5 5,4 6,4 6,3 16,3 16,4 17,4 17,5 18,5 18,6 19,6 19,5 19,4 21,4 21,10 15,10 15,8 17,8 17,7 16,7 16,6 
	15,6 15,5 8,5 8,6 7,6 7,7 6,7 6,8 5,8 5,16 6,16 6,17 7,17 7,18 8,18 8,19 15,19 15,18 16,18 16,17 17,17 17,16 18,16 18,15 20,15 
	20,18 19,18 19,19 18,19 18,20 17,20 17,21 6,21 6,20 5,20 5,19 4,19 4,18 3,18 3,6 "/>
</svg>
