<?xml version="1.0" encoding="utf-8"?>
<!-- Generator: Adobe Illustrator 25.4.1, SVG Export Plug-In . SVG Version: 6.00 Build 0)  -->
<svg version="1.1" id="Layer_1" xmlns="http://www.w3.org/2000/svg" xmlns:xlink="http://www.w3.org/1999/xlink" x="0px" y="0px"
	 viewBox="0 0 24 24" style="enable-background:new 0 0 24 24;" xml:space="preserve">
<path d="M21,3V2h-6v1h-1v3h-1v2h-2v1H9V8H3v1H2v6h1v1h6v-1h2v1h2v2h1v3h1v1h6v-1h1v-6h-1v-1h-5v1h-1v-1h-2v-1h-1v-2h1v-1h2V9h1v1h5
	V9h1V3H21z M20,7h-1v1h-2V7h-1V5h1V4h2v1h1V7z M7,13v1H5v-1H4v-2h1v-1h2v1h1v2H7z M17,16h2v1h1v2h-1v1h-2v-1h-1v-2h1V16z"/>
</svg>
