<?xml version="1.0" encoding="utf-8"?>
<!-- Generator: Adobe Illustrator 25.4.1, SVG Export Plug-In . SVG Version: 6.00 Build 0)  -->
<svg version="1.1" id="Layer_1" xmlns="http://www.w3.org/2000/svg" xmlns:xlink="http://www.w3.org/1999/xlink" x="0px" y="0px"
	 viewBox="0 0 24 24" style="enable-background:new 0 0 24 24;" xml:space="preserve">
<g>
	<path d="M14,9h-4v1H9v4h1v1h4v-1h1v-4h-1V9z M13,13h-2v-2h2V13z"/>
	<path d="M21,9V7h-1V6h-1V5h-2V3H7v2H5v1H4v1H3v2H1v6h2v2h1v1h1v1h2v2h10v-2h2v-1h1v-1h1v-2h2V9H21z M21,13h-2v2h-1v1h-1v1h-2v2H9
		v-2H7v-1H6v-1H5v-2H3v-2h2v-1V9h1V8h1V7h2V5h6v2h2v1h1v1h1v2h2V13z"/>
</g>
</svg>
