<?xml version="1.0" encoding="utf-8"?>
<!-- Generator: Adobe Illustrator 25.4.1, SVG Export Plug-In . SVG Version: 6.00 Build 0)  -->
<svg version="1.1" id="Layer_1" xmlns="http://www.w3.org/2000/svg" xmlns:xlink="http://www.w3.org/1999/xlink" x="0px" y="0px"
	 viewBox="0 0 24 24" style="enable-background:new 0 0 24 24;" xml:space="preserve">
<g>
	<polygon points="16,14 17,14 17,10 16,10 16,9 15,9 15,15 16,15 	"/>
	<path d="M11,3v1h-1v1H9v1H8v1H7v1H6v1H5v1H4v1H3v2h1v1h1v1h1v1h1v1h1v1h1v1h1v1h1v1h2V3H11z M11,16h-1v-1H9v-1H8v-1H7v-2h1v-1h1V9
		h1V8h1V16z"/>
	<polygon points="19,7 19,6 15,6 15,8 17,8 17,9 18,9 18,15 17,15 17,16 15,16 15,18 19,18 19,17 20,17 20,7 	"/>
</g>
</svg>
