<?xml version="1.0" encoding="utf-8"?>
<!-- Generator: Adobe Illustrator 25.4.1, SVG Export Plug-In . SVG Version: 6.00 Build 0)  -->
<svg version="1.1" id="Layer_1" xmlns="http://www.w3.org/2000/svg" xmlns:xlink="http://www.w3.org/1999/xlink" x="0px" y="0px"
	 viewBox="0 0 24 24" style="enable-background:new 0 0 24 24;" xml:space="preserve">
<g>
	<path d="M11,3v1h-1v1H9v1H8v1H7v1H6v1H5v1H4v1H3v2h1v1h1v1h1v1h1v1h1v1h1v1h1v1h1v1h2V3H11z M11,16h-1v-1H9v-1H8v-1H7v-2h1v-1h1V9
		h1V8h1V16z"/>
	<polygon points="19,10 19,11 18,11 18,10 16,10 16,12 17,12 17,13 16,13 16,15 18,15 18,14 19,14 19,15 21,15 21,13 20,13 20,12 
		21,12 21,10 	"/>
</g>
</svg>
