<?xml version="1.0" encoding="utf-8"?>
<!-- Generator: Adobe Illustrator 25.4.1, SVG Export Plug-In . SVG Version: 6.00 Build 0)  -->
<svg version="1.1" id="Layer_1" xmlns="http://www.w3.org/2000/svg" xmlns:xlink="http://www.w3.org/1999/xlink" x="0px" y="0px"
	 viewBox="0 0 24 24" style="enable-background:new 0 0 24 24;" xml:space="preserve">
<polygon points="7,12 7,11 9,11 9,9 11,9 11,21 13,21 13,9 15,9 15,11 17,11 17,12 19,12 19,9 17,9 17,7 15,7 15,5 14,5 14,4 13,4 
	13,3 11,3 11,4 10,4 10,5 9,5 9,7 7,7 7,9 5,9 5,12 "/>
</svg>
