<?xml version="1.0" encoding="utf-8"?>
<!-- Generator: Adobe Illustrator 25.4.1, SVG Export Plug-In . SVG Version: 6.00 Build 0)  -->
<svg version="1.1" id="Layer_1" xmlns="http://www.w3.org/2000/svg" xmlns:xlink="http://www.w3.org/1999/xlink" x="0px" y="0px"
	 viewBox="0 0 24 24" style="enable-background:new 0 0 24 24;" xml:space="preserve">
<polygon points="7,19 7,18 8,18 8,17 9,17 9,16 10,16 10,15 11,15 11,14 12,14 12,13 13,13 13,12 14,12 14,11 15,11 15,10 16,10 
	16,9 17,9 17,15 19,15 19,5 9,5 9,7 15,7 15,8 14,8 14,9 13,9 13,10 12,10 12,11 11,11 11,12 10,12 10,13 9,13 9,14 8,14 8,15 7,15 
	7,16 6,16 6,17 5,17 5,19 "/>
</svg>
