<?xml version="1.0" encoding="utf-8"?>
<!-- Generator: Adobe Illustrator 25.4.1, SVG Export Plug-In . SVG Version: 6.00 Build 0)  -->
<svg version="1.1" id="Layer_1" xmlns="http://www.w3.org/2000/svg" xmlns:xlink="http://www.w3.org/1999/xlink" x="0px" y="0px"
	 viewBox="0 0 24 24" style="enable-background:new 0 0 24 24;" xml:space="preserve">
<g>
	<rect x="9" y="10" width="6" height="2"/>
	<path d="M19,6V5h-1V4h-1V3H7v1H6v1H5v1H4v10h1v1h1v1h1v1h8v2h1v1h3v-2h-1v-1h-1v-1h1v-1h1v-1h1V6H19z M18,14h-1v1h-1v1h-1v1H9v-1H8
		v-1H7v-1H6V8h1V7h1V6h1V5h6v1h1v1h1v1h1V14z"/>
</g>
</svg>
