<?xml version="1.0" encoding="utf-8"?>
<!-- Generator: Adobe Illustrator 25.4.1, SVG Export Plug-In . SVG Version: 6.00 Build 0)  -->
<svg version="1.1" id="Layer_1" xmlns="http://www.w3.org/2000/svg" xmlns:xlink="http://www.w3.org/1999/xlink" x="0px" y="0px"
	 viewBox="0 0 24 24" style="enable-background:new 0 0 24 24;" xml:space="preserve">
<rect x="10" y="18" width="1" height="1"/>
<rect x="10" y="17" width="1" height="1"/>
<rect x="10" y="12" width="1" height="1"/>
<rect x="10" y="11" width="1" height="1"/>
<rect x="10" y="6" width="1" height="1"/>
<rect x="10" y="5" width="1" height="1"/>
<rect x="11" y="19" width="1" height="1"/>
<rect x="11" y="18" width="1" height="1"/>
<rect x="11" y="17" width="1" height="1"/>
<rect x="11" y="16" width="1" height="1"/>
<rect x="11" y="13" width="1" height="1"/>
<rect x="11" y="12" width="1" height="1"/>
<rect x="11" y="11" width="1" height="1"/>
<rect x="11" y="10" width="1" height="1"/>
<rect x="11" y="7" width="1" height="1"/>
<rect x="11" y="6" width="1" height="1"/>
<rect x="11" y="5" width="1" height="1"/>
<rect x="12" y="19" width="1" height="1"/>
<rect x="12" y="18" width="1" height="1"/>
<rect x="12" y="17" width="1" height="1"/>
<rect x="12" y="16" width="1" height="1"/>
<rect x="12" y="13" width="1" height="1"/>
<rect x="12" y="12" width="1" height="1"/>
<rect x="12" y="11" width="1" height="1"/>
<rect x="12" y="10" width="1" height="1"/>
<rect x="12" y="7" width="1" height="1"/>
<rect x="12" y="6" width="1" height="1"/>
<rect x="12" y="5" width="1" height="1"/>
<rect x="13" y="18" width="1" height="1"/>
<rect x="13" y="17" width="1" height="1"/>
<rect x="13" y="12" width="1" height="1"/>
<rect x="13" y="11" width="1" height="1"/>
<rect x="13" y="6" width="1" height="1"/>
<rect x="13" y="5" width="1" height="1"/>
<rect x="11" y="4" width="1" height="1"/>
<rect x="12" y="4" width="1" height="1"/>
</svg>
