<?xml version="1.0" encoding="utf-8"?>
<!-- Generator: Adobe Illustrator 25.4.1, SVG Export Plug-In . SVG Version: 6.00 Build 0)  -->
<svg version="1.1" id="Layer_1" xmlns="http://www.w3.org/2000/svg" xmlns:xlink="http://www.w3.org/1999/xlink" x="0px" y="0px"
	 viewBox="0 0 24 24" style="enable-background:new 0 0 24 24;" xml:space="preserve">
<rect x="19" y="19" width="1" height="1"/>
<rect x="18" y="19" width="1" height="1"/>
<rect x="17" y="19" width="1" height="1"/>
<rect x="6" y="19" width="1" height="1"/>
<rect x="5" y="19" width="1" height="1"/>
<rect x="19" y="18" width="1" height="1"/>
<rect x="18" y="18" width="1" height="1"/>
<rect x="5" y="18" width="1" height="1"/>
<rect x="19" y="17" width="1" height="1"/>
<rect x="12" y="17" width="1" height="1"/>
<rect x="11" y="17" width="1" height="1"/>
<rect x="12" y="16" width="1" height="1"/>
<rect x="11" y="16" width="1" height="1"/>
<rect x="12" y="13" width="1" height="1"/>
<rect x="11" y="13" width="1" height="1"/>
<rect x="12" y="12" width="1" height="1"/>
<rect x="11" y="12" width="1" height="1"/>
<rect x="12" y="11" width="1" height="1"/>
<rect x="11" y="11" width="1" height="1"/>
<rect x="12" y="10" width="1" height="1"/>
<rect x="11" y="10" width="1" height="1"/>
<rect x="12" y="9" width="1" height="1"/>
<rect x="11" y="9" width="1" height="1"/>
<rect x="12" y="8" width="1" height="1"/>
<rect x="11" y="8" width="1" height="1"/>
<rect x="12" y="7" width="1" height="1"/>
<rect x="11" y="7" width="1" height="1"/>
<rect x="19" y="6" width="1" height="1"/>
<rect x="12" y="6" width="1" height="1"/>
<rect x="11" y="6" width="1" height="1"/>
<rect x="19" y="5" width="1" height="1"/>
<rect x="18" y="5" width="1" height="1"/>
<rect x="5" y="5" width="1" height="1"/>
<rect x="19" y="4" width="1" height="1"/>
<rect x="18" y="4" width="1" height="1"/>
<rect x="17" y="4" width="1" height="1"/>
<rect x="6" y="4" width="1" height="1"/>
<rect x="5" y="4" width="1" height="1"/>
<rect x="18" y="21" width="1" height="1"/>
<rect x="17" y="21" width="1" height="1"/>
<rect x="16" y="21" width="1" height="1"/>
<rect x="15" y="21" width="1" height="1"/>
<rect x="14" y="21" width="1" height="1"/>
<rect x="13" y="21" width="1" height="1"/>
<rect x="12" y="21" width="1" height="1"/>
<rect x="11" y="21" width="1" height="1"/>
<rect x="10" y="21" width="1" height="1"/>
<rect x="9" y="21" width="1" height="1"/>
<rect x="8" y="21" width="1" height="1"/>
<rect x="7" y="21" width="1" height="1"/>
<rect x="6" y="21" width="1" height="1"/>
<rect x="5" y="21" width="1" height="1"/>
<rect x="19" y="20" width="1" height="1"/>
<rect x="18" y="20" width="1" height="1"/>
<rect x="17" y="20" width="1" height="1"/>
<rect x="16" y="20" width="1" height="1"/>
<rect x="15" y="20" width="1" height="1"/>
<rect x="14" y="20" width="1" height="1"/>
<rect x="13" y="20" width="1" height="1"/>
<rect x="12" y="20" width="1" height="1"/>
<rect x="11" y="20" width="1" height="1"/>
<rect x="10" y="20" width="1" height="1"/>
<rect x="9" y="20" width="1" height="1"/>
<rect x="8" y="20" width="1" height="1"/>
<rect x="7" y="20" width="1" height="1"/>
<rect x="6" y="20" width="1" height="1"/>
<rect x="5" y="20" width="1" height="1"/>
<rect x="19" y="3" width="1" height="1"/>
<rect x="18" y="3" width="1" height="1"/>
<rect x="17" y="3" width="1" height="1"/>
<rect x="16" y="3" width="1" height="1"/>
<rect x="15" y="3" width="1" height="1"/>
<rect x="14" y="3" width="1" height="1"/>
<rect x="13" y="3" width="1" height="1"/>
<rect x="12" y="3" width="1" height="1"/>
<rect x="11" y="3" width="1" height="1"/>
<rect x="10" y="3" width="1" height="1"/>
<rect x="9" y="3" width="1" height="1"/>
<rect x="8" y="3" width="1" height="1"/>
<rect x="7" y="3" width="1" height="1"/>
<rect x="6" y="3" width="1" height="1"/>
<rect x="5" y="3" width="1" height="1"/>
<rect x="18" y="2" width="1" height="1"/>
<rect x="17" y="2" width="1" height="1"/>
<rect x="16" y="2" width="1" height="1"/>
<rect x="15" y="2" width="1" height="1"/>
<rect x="14" y="2" width="1" height="1"/>
<rect x="13" y="2" width="1" height="1"/>
<rect x="12" y="2" width="1" height="1"/>
<rect x="11" y="2" width="1" height="1"/>
<rect x="10" y="2" width="1" height="1"/>
<rect x="9" y="2" width="1" height="1"/>
<rect x="8" y="2" width="1" height="1"/>
<rect x="7" y="2" width="1" height="1"/>
<rect x="6" y="2" width="1" height="1"/>
<rect x="5" y="2" width="1" height="1"/>
<rect x="20" y="19" width="1" height="1"/>
<rect x="21" y="18" width="1" height="1"/>
<rect x="20" y="18" width="1" height="1"/>
<rect x="21" y="17" width="1" height="1"/>
<rect x="20" y="17" width="1" height="1"/>
<rect x="21" y="16" width="1" height="1"/>
<rect x="20" y="16" width="1" height="1"/>
<rect x="21" y="15" width="1" height="1"/>
<rect x="20" y="15" width="1" height="1"/>
<rect x="21" y="14" width="1" height="1"/>
<rect x="20" y="14" width="1" height="1"/>
<rect x="21" y="13" width="1" height="1"/>
<rect x="20" y="13" width="1" height="1"/>
<rect x="21" y="12" width="1" height="1"/>
<rect x="20" y="12" width="1" height="1"/>
<rect x="21" y="11" width="1" height="1"/>
<rect x="20" y="11" width="1" height="1"/>
<rect x="21" y="10" width="1" height="1"/>
<rect x="20" y="10" width="1" height="1"/>
<rect x="21" y="9" width="1" height="1"/>
<rect x="20" y="9" width="1" height="1"/>
<rect x="21" y="8" width="1" height="1"/>
<rect x="20" y="8" width="1" height="1"/>
<rect x="21" y="7" width="1" height="1"/>
<rect x="20" y="7" width="1" height="1"/>
<rect x="21" y="6" width="1" height="1"/>
<rect x="20" y="6" width="1" height="1"/>
<rect x="21" y="5" width="1" height="1"/>
<rect x="20" y="5" width="1" height="1"/>
<rect x="20" y="4" width="1" height="1"/>
<rect x="4" y="19" width="1" height="1"/>
<rect x="3" y="19" width="1" height="1"/>
<rect x="4" y="18" width="1" height="1"/>
<rect x="3" y="18" width="1" height="1"/>
<rect x="2" y="18" width="1" height="1"/>
<rect x="4" y="17" width="1" height="1"/>
<rect x="3" y="17" width="1" height="1"/>
<rect x="2" y="17" width="1" height="1"/>
<rect x="3" y="16" width="1" height="1"/>
<rect x="2" y="16" width="1" height="1"/>
<rect x="3" y="15" width="1" height="1"/>
<rect x="2" y="15" width="1" height="1"/>
<rect x="3" y="14" width="1" height="1"/>
<rect x="2" y="14" width="1" height="1"/>
<rect x="3" y="13" width="1" height="1"/>
<rect x="2" y="13" width="1" height="1"/>
<rect x="3" y="12" width="1" height="1"/>
<rect x="2" y="12" width="1" height="1"/>
<rect x="3" y="11" width="1" height="1"/>
<rect x="2" y="11" width="1" height="1"/>
<rect x="3" y="10" width="1" height="1"/>
<rect x="2" y="10" width="1" height="1"/>
<rect x="3" y="9" width="1" height="1"/>
<rect x="2" y="9" width="1" height="1"/>
<rect x="3" y="8" width="1" height="1"/>
<rect x="2" y="8" width="1" height="1"/>
<rect x="3" y="7" width="1" height="1"/>
<rect x="2" y="7" width="1" height="1"/>
<rect x="4" y="6" width="1" height="1"/>
<rect x="3" y="6" width="1" height="1"/>
<rect x="2" y="6" width="1" height="1"/>
<rect x="4" y="5" width="1" height="1"/>
<rect x="3" y="5" width="1" height="1"/>
<rect x="2" y="5" width="1" height="1"/>
<rect x="4" y="4" width="1" height="1"/>
<rect x="3" y="4" width="1" height="1"/>
<rect x="4" y="20" width="1" height="1"/>
<rect x="4" y="3" width="1" height="1"/>
</svg>
